name Walk8_EMG.mot
datacolumns 17
datarows 13
range 2.95600000 2.96800000
endheader
                time	            vasmed_r	            vaslat_r	            recfem_r	               gra_r	               sar_r	            tibant_r	           perlong_r	            addmag_r	           semimem_r	          bicfemlh_r	            gasmed_r	            gaslat_r	               sol_r	               tfl_r	              gmed_r	              gmax_r	
          2.95600000	         -0.00366835	          0.00000000	          0.00000000	          0.00000000	          0.03319565	          0.01442850	          0.00000000	          0.00000000	          0.00000000	          0.00862399	          0.00000000	          0.00000000	          0.00830523	          0.00000000	          0.00000000	          0.00000000	
          2.95700000	         -0.00365916	          0.00000000	          0.00000000	          0.00000000	          0.03320378	          0.01442914	          0.00000000	          0.00000000	          0.00000000	          0.00862475	          0.00000000	          0.00000000	          0.00831055	          0.00000000	          0.00000000	          0.00000000	
          2.95800000	         -0.00361956	          0.00000000	          0.00000000	          0.00000000	          0.03323659	          0.01443161	          0.00000000	          0.00000000	          0.00000000	          0.00862880	          0.00000000	          0.00000000	          0.00833139	          0.00000000	          0.00000000	          0.00000000	
          2.95900000	         -0.00350749	          0.00000000	          0.00000000	          0.00000000	          0.03332370	          0.01443800	          0.00000000	          0.00000000	          0.00000000	          0.00864168	          0.00000000	          0.00000000	          0.00838556	          0.00000000	          0.00000000	          0.00000000	
          2.96000000	         -0.00326711	          0.00000000	          0.00000000	          0.00000000	          0.03350154	          0.01445100	          0.00000000	          0.00000000	          0.00000000	          0.00867121	          0.00000000	          0.00000000	          0.00849602	          0.00000000	          0.00000000	          0.00000000	
          2.96100000	         -0.00283863	          0.00000000	          0.00000000	          0.00000000	          0.03380904	          0.01447336	          0.00000000	          0.00000000	          0.00000000	          0.00872616	          0.00000000	          0.00000000	          0.00869356	          0.00000000	          0.00000000	          0.00000000	
          2.96200000	         -0.00216296	          0.00000000	          0.00000000	          0.00000000	          0.03428559	          0.01450765	          0.00000000	          0.00000000	          0.00000000	          0.00881604	          0.00000000	          0.00000000	          0.00902184	          0.00000000	          0.00000000	          0.00000000	
          2.96300000	         -0.00118250	          0.00000000	          0.00000000	          0.00000000	          0.03497032	          0.01455641	          0.00000000	          0.00000000	          0.00000000	          0.00895175	          0.00000000	          0.00000000	          0.00953609	          0.00000000	          0.00000000	          0.00000000	
          2.96400000	          0.00015807	          0.00000000	          0.00000000	          0.00000000	          0.03590393	          0.01462276	          0.00000000	          0.00000000	          0.00000000	          0.00914562	          0.00000000	          0.00000000	          0.01029605	          0.00000000	          0.00000000	          0.00000000	
          2.96500000	          0.00191095	          0.00000000	          0.00000000	          0.00000000	          0.03713192	          0.01471114	          0.00000000	          0.00000000	          0.00000000	          0.00941120	          0.00000000	          0.00000000	          0.01135980	          0.00000000	          0.00000000	          0.00000000	
          2.96600000	          0.00412419	          0.00000000	          0.00000000	          0.00000000	          0.03870645	          0.01482750	          0.00133771	          0.00000000	          0.00000000	          0.00976256	          0.00000000	          0.00000000	          0.01278004	          0.00000000	          0.00000000	          0.00000000	
          2.96700000	          0.00684033	          0.00048912	          0.00007505	          0.00013917	          0.04068450	          0.01497867	          0.00314515	          0.00023886	          0.00012362	          0.01021309	          0.00142519	          0.00015088	          0.01460230	          0.00014471	          0.00029789	          0.00009086	
          2.96800000	          0.01009521	          0.00125516	          0.00041594	          0.00050174	          0.04312144	          0.01517220	          0.00535400	          0.00079398	          0.00047798	          0.01077428	          0.00365151	          0.00121867	          0.01686566	          0.00066484	          0.00103491	          0.00048855	
